<?xml version="1.0" encoding="UTF-8"?>
<svg id="Layer_2" data-name="Layer 2" xmlns="http://www.w3.org/2000/svg" viewBox="0 0 135 135">
  <defs>
    <style>
      .cls-1, .cls-2, .cls-3 {
        stroke-width: 0px;
      }

      .cls-2 {
        fill: #f7f6f5;
      }

      .cls-3 {
        fill: #010201;
      }
    </style>
  </defs>
  <g id="Graphic_Elements" data-name="Graphic Elements">
    <g>
      <circle class="cls-3" cx="67.5" cy="67.5" r="67.5"/>
      <rect class="cls-2" x="30.75" y="24.5" width="78.4" height="78.4"/>
      <path class="cls-1" d="m106.53,16.15H29.93c-6.61,0-11.97,5.36-11.97,11.97v76.6c0,6.61,5.36,11.97,11.97,11.97h76.6c6.61,0,11.97-5.36,11.97-11.97V28.12c0-6.61-5.36-11.97-11.97-11.97Zm-57.45,38.3v45.48h-14.36v-45.48h14.36Zm-14.36-13.24c0-3.35,2.87-5.91,7.18-5.91s7.01,2.56,7.18,5.91c0,3.35-2.68,6.06-7.18,6.06s-7.18-2.7-7.18-6.06Zm67.02,58.72h-14.36v-23.94c0-4.79-2.39-9.57-8.38-9.67h-.19c-5.79,0-8.19,4.93-8.19,9.67v23.94h-14.36v-45.48h14.36v6.13s4.62-6.13,13.91-6.13,17.21,6.53,17.21,19.77v25.71Z"/>
    </g>
  </g>
</svg>